# xmcd CD database file
# Copyright (C) 1993-1998 Ti Kan
#
# Track frame offsets:
#  150
#  16175
#  32875
#  62275
#  78287
#  107612
#  133100
#  144837
#  162575
#  179985
#  202825
#  217900
#  240250
#  254917
#
# Disc length: 3620 seconds
#
# Revision: 1
# Processed by: cddbd v1.4b41PL1 Copyright (c) Steve Scherf et al.
# Submitted via: CDWizzard Release:4.35
#
DISCID=bc0e220e
DTITLE=Holmes Brothers - I Saw The Light
DYEAR=1900
DGENRE=
TTITLE0=Up Above My Head
TTITLE1=Dashboard Bar
TTITLE2=When Something Is Wrong With My Baby
TTITLE3=Promised Land
TTITLE4=Going Down Slow
TTITLE5=That's Where It's At
TTITLE6=I Saw The Light
TTITLE7=There's A Train
TTITLE8=I Found A Winner
TTITLE9=Drown In My Own Tears
TTITLE10=I've Been A Loser
TTITLE11=You're Gonna Make Me Cry
TTITLE12=Walk In The Light
TTITLE13=I Won't Hurt You Anymore
EXTD=
EXTT0=
EXTT1=
EXTT2=
EXTT3=
EXTT4=
EXTT5=
EXTT6=
EXTT7=
EXTT8=
EXTT9=
EXTT10=
EXTT11=
EXTT12=
EXTT13=
PLAYORDER=
